<?xml version="1.0" encoding="UTF-8"?>
<svg id="Camada_1" data-name="Camada 1" xmlns="http://www.w3.org/2000/svg" viewBox="0 0 580.04 233">
  <defs>
    <style>
      .cls-1 {
        fill: #fff;
      }
    </style>
  </defs>
  <path class="cls-1" d="M89.46,206.4c-.73,0-1.55-.27-2.46-.82-.91-.55-1.73-1-2.46-1.37L5.5,141.04c-2.19-2-3.74-3.87-4.65-5.61-.91-1.73-1.09-3.97-.55-6.7l1.37-6.56c.55-2.74,1.64-4.97,3.28-6.7,1.64-1.73,4.01-3.51,7.11-5.33L117.62,46.97c.91-.55,2-1.05,3.28-1.5,1.27-.45,2.28-.68,3.01-.68,1.64,0,2.91,.46,3.83,1.37,.91,.91,1.18,2.28,.82,4.1l-4.65,20.78c-.55,2.56-1.6,4.51-3.14,5.88-1.55,1.37-3.51,2.69-5.88,3.97L39.14,125.46l56.88,44.85c1.64,1.09,3.01,2.32,4.1,3.69,1.09,1.37,1.27,3.42,.55,6.15l-4.38,20.51c-.18,1.82-.96,3.24-2.32,4.24-1.37,1-2.87,1.5-4.51,1.5Z"/>
  <path class="cls-1" d="M192.55,213.24c-8.75,0-17.41-1.23-25.98-3.69-8.57-2.46-16.18-6.24-22.83-11.35-6.66-5.1-11.62-11.39-14.9-18.87-3.28-7.47-4.2-16.31-2.73-26.53,.36-1.64,1.14-3.05,2.32-4.24,1.18-1.18,2.69-1.78,4.51-1.78h26.25c2.37,0,4.05,.64,5.06,1.91,1,1.28,1.59,3.01,1.78,5.2-.73,9.84,1.46,16.95,6.56,21.33,5.1,4.38,12.49,6.56,22.15,6.56,12.76,0,22.83-3.73,30.22-11.21,7.38-7.47,12.44-17.86,15.18-31.17l18.87-88.05h-92.98c-1.82,0-3.24-.64-4.24-1.91-1-1.27-1.32-2.82-.96-4.65l4.38-19.14c.36-1.82,1.27-3.37,2.73-4.65,1.46-1.27,3.1-1.91,4.92-1.91h125.25c2,0,3.46,.64,4.38,1.91,.91,1.28,1.18,2.92,.82,4.92l-24.34,114.58c-3.1,15.13-8.16,28.17-15.18,39.11-7.02,10.94-16.36,19.28-28.03,25.02-11.67,5.74-26.07,8.61-43.21,8.61Z"/>
  <path class="cls-1" d="M292.01,233c-1.96,0-3.39-.85-4.29-2.54-.89-1.7-.71-3.53,.54-5.49L425.65,6.43c.89-1.43,2.23-2.85,4.02-4.29,1.78-1.43,4.11-2.14,6.96-2.14h24.64c2.32,0,3.79,.85,4.42,2.54,.62,1.7,.31,3.53-.94,5.49l-137.66,218.54c-.9,1.25-2.24,2.63-4.02,4.15-1.79,1.52-4.11,2.28-6.96,2.28h-24.1Z"/>
  <path class="cls-1" d="M456.13,206.13c-1.64,0-2.87-.45-3.69-1.37-.82-.91-1.05-2.28-.68-4.1l4.38-20.78c.55-2.55,1.64-4.51,3.28-5.88,1.64-1.37,3.56-2.69,5.74-3.97l75.75-44.57-56.61-44.57c-1.83-1.27-3.28-2.64-4.38-4.1-1.09-1.46-1.37-3.37-.82-5.74l4.65-20.78c.36-1.82,1.18-3.23,2.46-4.24,1.27-1,2.64-1.5,4.1-1.5,.91,0,1.82,.27,2.74,.82,.91,.55,1.73,1.09,2.46,1.64l79.03,62.9c2.19,2.01,3.73,3.88,4.65,5.61,.91,1.73,1.09,3.96,.55,6.7l-1.37,6.56c-.55,2.56-1.64,4.74-3.28,6.56-1.64,1.82-4.01,3.65-7.11,5.47l-105.83,63.17c-.73,.55-1.74,1.05-3.01,1.5-1.28,.46-2.28,.68-3.01,.68Z"/>
</svg>